<svg xmlns="http://www.w3.org/2000/svg" viewBox="0 0 200 200" width="100%" height="100%">
  <!-- Base Container & Border -->
  <rect x="16" y="16" width="168" height="168" rx="36" fill="#111621" stroke="#00bcd4" stroke-width="12" />

  <!-- Background Meter Tracks (Inactive) -->
  <path d="M30 30v140M44 30v140M58 30v140M72 30v140M86 30v140M114 30v140M128 30v140M142 30v140M156 30v140M170 30v140"
        stroke="#151a26" stroke-width="8" />

  <!-- Background Meter Levels (Active, Muted) -->
  <path d="M30 110v60M44 80v90M58 120v50M72 60v110M86 130v40M114 90v80M128 50v120M142 100v70M156 70v100M170 115v55"
        stroke="#252d3a" stroke-width="8" />

  <!-- Center Signal Peak (Neon Green) -->
  <path d="M100 25v145" stroke="#79e25b" stroke-width="8" stroke-linecap="round" />

  <!-- Cutout Mask (Creates exact negative space behind curves to cut through meters & green line) -->
  <g fill="none" stroke="#111621" stroke-width="18" stroke-linecap="round" stroke-linejoin="round">
    <path d="M30 65h40c15 0 20 25 30 35l70 70" />
    <path d="M170 65h-40c-15 0-20 25-30 35l-70 70" />
  </g>

  <!-- Primary Crossover Curves (Cyan) -->
  <g fill="none" stroke="#00bcd4" stroke-width="10" stroke-linecap="round" stroke-linejoin="round">
    <path d="M30 65h40c15 0 20 25 30 35l70 70" />
    <path d="M170 65h-40c-15 0-20 25-30 35l-70 70" />
  </g>
</svg>
